<?xml version="1.0" encoding="UTF-8" standalone="no"?>
<svg
   width="16"
   height="16"
   version="1.1"
   id="svg1"
   sodipodi:docname="Component.svg"
   xml:space="preserve"
   inkscape:version="1.3.2 (091e20e, 2023-11-25, custom)"
   xmlns:inkscape="http://www.inkscape.org/namespaces/inkscape"
   xmlns:sodipodi="http://sodipodi.sourceforge.net/DTD/sodipodi-0.dtd"
   xmlns="http://www.w3.org/2000/svg"
   xmlns:svg="http://www.w3.org/2000/svg"><defs
     id="defs1" /><sodipodi:namedview
     id="namedview1"
     pagecolor="#505050"
     bordercolor="#eeeeee"
     borderopacity="1"
     inkscape:showpageshadow="0"
     inkscape:pageopacity="0"
     inkscape:pagecheckerboard="0"
     inkscape:deskcolor="#505050"
     inkscape:zoom="50.690717"
     inkscape:cx="5.780151"
     inkscape:cy="10.899431"
     inkscape:window-width="2560"
     inkscape:window-height="1361"
     inkscape:window-x="-9"
     inkscape:window-y="-9"
     inkscape:window-maximized="1"
     inkscape:current-layer="svg1" /><style
     type="text/css"
     id="style1">
	.st0{fill:#000000;}
</style><g
     id="g3"
     transform="matrix(0.02612548,0,0,0.02699327,1.3118771,1.0897229)"
     style="fill:#ffffff">
	<path
   class="st0"
   d="m 280.211,129.456 c -7.121,-3.287 -15.39,-5.124 -24.216,-5.168 h -0.265 c -11.732,0.026 -22.492,3.154 -30.868,8.8 -4.178,2.844 -7.774,6.342 -10.415,10.548 -2.633,4.188 -4.25,9.152 -4.258,14.373 l -0.159,39.19 v 0.106 c -0.009,5.221 1.59,10.204 4.214,14.409 3.948,6.342 10.001,11.104 17.103,14.408 7.12,3.296 15.39,5.124 24.216,5.168 h 0.035 0.221 c 11.732,-0.017 22.501,-3.154 30.876,-8.798 4.178,-2.836 7.774,-6.344 10.407,-10.548 2.633,-4.188 4.249,-9.153 4.267,-14.374 l 0.158,-39.189 v -0.035 -0.072 c 0.009,-5.22 -1.598,-10.203 -4.214,-14.408 -3.957,-6.335 -10.008,-11.106 -17.102,-14.41 z m 3.357,68.043 c -0.018,1.661 -0.468,3.242 -1.564,5.009 -1.608,2.614 -4.841,5.459 -9.434,7.553 -4.568,2.094 -10.398,3.437 -16.75,3.428 h -0.089 -0.097 c -8.499,-0.018 -16.052,-2.474 -20.946,-5.858 -2.456,-1.679 -4.232,-3.542 -5.309,-5.3 -1.087,-1.768 -1.538,-3.366 -1.546,-5.027 v -0.009 -0.026 l 0.062,-16.158 c 1.652,1.051 3.392,2.014 5.23,2.853 6.661,3.057 14.489,4.779 22.872,4.779 10.486,-0.018 20.089,-2.703 27.634,-7.368 z m 0.159,-39.19 -0.035,8.649 c -2.183,2.597 -5.398,5.035 -9.462,6.9 -5.072,2.332 -11.388,3.764 -18.235,3.754 -9.126,0.018 -17.307,-2.553 -22.863,-6.352 -2.13,-1.449 -3.861,-3.057 -5.177,-4.718 l 0.035,-8.463 c 0.018,-1.661 0.468,-3.242 1.555,-5.001 1.608,-2.614 4.842,-5.468 9.436,-7.553 4.576,-2.103 10.398,-3.437 16.75,-3.428 h 0.159 0.026 c 8.508,0.008 16.061,2.473 20.947,5.848 2.456,1.679 4.231,3.542 5.318,5.301 1.087,1.767 1.537,3.365 1.546,5.026 z"
   id="path1"
   style="fill:#ffffff" />
	<path
   class="st0"
   d="m 101.627,75.618 c 0.017,-0.017 0.044,-0.017 0.061,-0.035 l 0.406,-0.282 z"
   id="path2-7"
   style="fill:#ffffff" />
	<path
   class="st0"
   d="m 421.345,101.539 c -0.703,-4.832 -2.381,-9.365 -4.837,-13.304 l -0.239,-0.38 0.234,0.38 C 411.671,80.531 404.475,75.009 396.445,71.299 l -0.013,-0.009 c -8.093,-3.702 -17.325,-5.68 -27.078,-5.689 h -0.004 c -6.427,0 -12.531,0.998 -18.274,2.632 L 308.534,48.055 c -0.212,-6.183 -2.103,-11.961 -5.102,-16.82 -4.766,-7.678 -11.86,-13.234 -19.812,-17.016 l -0.371,-0.176 0.354,0.176 c -8.009,-3.763 -17.166,-5.848 -26.874,-5.98 l -0.014,1.007 0.004,-1.007 -0.875,-0.009 h -0.052 c -12.793,0.026 -24.728,3.392 -34.327,9.806 l -0.013,0.009 c -4.793,3.233 -9.077,7.323 -12.302,12.394 -3.172,5.018 -5.204,11.025 -5.34,17.457 L 158.49,69.382 C 151.688,66.961 144.258,65.61 136.418,65.6 h -0.014 c -12.96,0.026 -25.037,3.472 -34.715,9.983 l -0.075,0.054 c -4.833,3.286 -9.148,7.456 -12.364,12.606 l 0.685,-1.096 -0.68,1.088 c -2.968,4.735 -4.85,10.389 -5.142,16.414 L 0,144.518 V 382.403 L 255.995,503.77 512,382.403 V 144.518 Z m -79.797,6.405 c 0.017,-1.661 0.468,-3.242 1.554,-5.001 1.21,-1.969 3.34,-4.072 6.273,-5.884 l 0.336,0.159 4.594,-1.943 c 4.197,-1.776 9.382,-2.907 15.045,-2.898 8.101,-0.027 15.266,2.314 19.736,5.397 2.244,1.52 3.8,3.172 4.692,4.621 0.892,1.466 1.201,2.632 1.21,3.852 v 10.893 c -1.988,1.793 -4.47,3.436 -7.412,4.779 -5.072,2.332 -11.388,3.764 -18.226,3.764 -9.135,0.018 -17.316,-2.562 -22.872,-6.361 -2.014,-1.37 -3.666,-2.88 -4.956,-4.452 z m -0.159,39.207 v -0.017 l 0.07,-17.811 c 1.582,0.999 3.251,1.9 5.009,2.712 6.661,3.057 14.498,4.771 22.881,4.78 10.583,-0.018 20.266,-2.756 27.846,-7.5 l -0.08,18.048 c -0.008,1.661 -0.468,3.242 -1.554,5 -1.608,2.616 -4.842,5.469 -9.435,7.563 -4.568,2.094 -10.398,3.428 -16.751,3.428 h -0.088 -0.098 c -8.498,-0.018 -16.052,-2.474 -20.946,-5.858 -2.456,-1.678 -4.232,-3.543 -5.309,-5.3 -1.086,-1.776 -1.537,-3.366 -1.546,-5.027 v -0.018 z M 230.561,48.55 c 0.026,-1.21 0.336,-2.358 1.229,-3.79 1.307,-2.12 4.151,-4.682 8.383,-6.59 4.197,-1.917 9.656,-3.162 15.629,-3.162 l 0.573,0.008 c 8.066,0.08 15.169,2.492 19.604,5.602 2.226,1.537 3.763,3.207 4.647,4.655 0.901,1.485 1.201,2.651 1.21,3.87 v 0.035 l -0.115,11.114 c -1.935,1.748 -4.338,3.357 -7.174,4.69 -5.026,2.377 -11.29,3.878 -18.102,3.958 h -0.017 l -0.627,0.009 c -8.976,0.009 -17.025,-2.491 -22.502,-6.201 -1.059,-0.708 -1.996,-1.484 -2.862,-2.262 z m -2.483,39.066 v -0.035 l 0.212,-14.834 c 1.573,0.981 3.234,1.874 4.966,2.669 6.581,2.985 14.293,4.655 22.546,4.655 h 0.786 0.008 c 10.434,-0.15 19.966,-2.942 27.432,-7.66 l -0.23,16.176 c -0.044,1.635 -0.495,3.181 -1.573,4.894 -1.608,2.562 -4.788,5.345 -9.302,7.378 -4.496,2.04 -10.222,3.339 -16.458,3.33 l -0.795,-0.009 c -8.455,-0.123 -15.937,-2.65 -20.787,-6.06 -2.439,-1.696 -4.197,-3.578 -5.275,-5.344 -1.077,-1.776 -1.519,-3.374 -1.528,-5.027 v -0.133 z m -117.303,18.632 c 0.009,-1.22 0.318,-2.386 1.21,-3.852 1.316,-2.165 4.214,-4.806 8.516,-6.768 4.276,-1.97 9.833,-3.26 15.911,-3.25 6.759,-0.018 12.845,1.598 17.307,3.966 l 4.93,2.597 0.619,-0.291 c 1.554,1.307 2.738,2.668 3.542,3.958 1.086,1.776 1.528,3.366 1.537,5.036 v 0.035 l -0.027,7.085 c -2.182,2.703 -5.468,5.239 -9.674,7.156 -5.07,2.332 -11.388,3.764 -18.234,3.764 -9.126,0.018 -17.307,-2.562 -22.864,-6.361 -1.024,-0.689 -1.934,-1.44 -2.774,-2.2 v -10.875 z m -2.315,40.409 v -0.018 l 0.071,-17.316 c 1.582,0.999 3.25,1.9 5.009,2.712 6.661,3.057 14.488,4.771 22.872,4.78 10.584,-0.018 20.275,-2.756 27.855,-7.5 l -0.08,17.554 c -0.009,1.661 -0.46,3.242 -1.555,5 -1.608,2.615 -4.841,5.469 -9.434,7.563 -4.577,2.094 -10.399,3.428 -16.75,3.428 h -0.186 c -8.499,-0.018 -16.052,-2.474 -20.946,-5.858 -2.456,-1.678 -4.232,-3.543 -5.31,-5.3 -1.086,-1.776 -1.537,-3.366 -1.546,-5.027 z M 244.872,468.866 26.777,365.476 V 172.011 l 218.096,103.39 v 193.465 z m 11.123,5.283 -0.653,-0.318 h 1.316 z m 0,-218.096 -214.368,-101.631 49.094,-23.279 -0.062,15.425 v 0.106 c -0.009,5.222 1.59,10.204 4.214,14.409 3.949,6.334 10.001,11.104 17.104,14.409 7.111,3.286 15.381,5.124 24.216,5.167 h 0.035 0.221 c 11.732,-0.026 22.492,-3.154 30.867,-8.808 4.188,-2.827 7.784,-6.334 10.416,-10.548 2.633,-4.188 4.249,-9.152 4.266,-14.365 l 0.159,-39.19 v -0.044 -0.062 c 0.009,-5.231 -1.598,-10.204 -4.214,-14.418 -0.566,-0.883 -1.166,-1.74 -1.802,-2.571 l 34.322,-16.273 -0.186,12.943 v 0.423 c -0.009,5.196 1.564,10.142 4.152,14.33 3.896,6.325 9.868,11.123 16.901,14.48 7.05,3.348 15.248,5.274 24.029,5.424 l 1.104,0.009 c 11.547,-0.018 22.148,-3.066 30.443,-8.596 4.135,-2.783 7.704,-6.228 10.346,-10.363 2.632,-4.126 4.275,-9.011 4.347,-14.161 l 0.202,-14.365 29.94,14.196 c -1.379,1.493 -2.651,3.075 -3.737,4.797 -2.632,4.188 -4.249,9.152 -4.258,14.373 l -0.159,39.19 v 0.106 c -0.017,5.221 1.59,10.204 4.214,14.409 3.95,6.334 10.001,11.104 17.095,14.408 7.12,3.286 15.39,5.125 24.224,5.168 h 0.036 0.22 c 11.732,-0.026 22.502,-3.154 30.877,-8.808 4.178,-2.827 7.774,-6.343 10.407,-10.548 2.633,-4.188 4.249,-9.152 4.267,-14.365 l 0.08,-19.259 55.366,26.248 z"
   id="path3-6"
   style="fill:#ffffff" />
</g></svg>
