<svg width="128" height="128" xml:space="preserve" xmlns="http://www.w3.org/2000/svg"><g style="clip-rule:evenodd;fill-rule:evenodd;image-rendering:optimizeQuality;shape-rendering:geometricPrecision;text-rendering:geometricPrecision"><path style="opacity:.99" fill="#0d0c0c" d="M15.5 6.5c75-.2 150 0 225 .5 3.8 1.2 6.3 3.7 7.5 7.5.7 74.7.7 149.3 0 224a10.7 10.7 0 0 1-7.5 7.5c-75 .7-150 .7-225 0a10.7 10.7 0 0 1-7.5-7.5c-.7-74.7-.7-149.3 0-224a13 13 0 0 1 7.5-8z" transform="matrix(.49792 0 0 .49987 .3 .8)"/><path style="opacity:1" fill="#fd8274" d="M16.5 8.5c74-.2 148 0 222 .5a11 11 0 0 1 6.5 4.5 6139 6139 0 0 1 1 223 11 11 0 0 1-4.5 6.5c-75 1.7-150 2-225 1a17 17 0 0 1-5.5-4.5c-1.7-74.6-2-149.3-1-224 1.7-2.9 3.9-5.2 6.5-7z" transform="matrix(.49792 0 0 .49987 .3 .8)"/><path style="opacity:1" fill="#2c1c1a" d="M172.5 240.5v-1c0-1.3.7-2 2-2 21 .2 42 0 63-.5.6-.8 1.1-1.6 1.5-2.5.8-72.6.7-145-.5-217.5a5975 5975 0 0 0-220-1L17 17.5c-.8 26.7-.7 53.3.5 80 .8-2.6 1.3-5.3 1.5-8a7 7 0 0 1 2.5-2c.7-.1 1.4 0 2 .5a12 12 0 0 0-4 8.5c-.9 3.4-2.5 6.4-5 9-1.2-29.3-1.3-58.7-.5-88a7.5 7.5 0 0 1 4.5-4.5c73.7-1 147.4-.7 221 1 1.2.9 2 2 2.5 3.5.7 72.7.7 145.3 0 218-.5 2.5-2 4-4.5 4.5-21.7.5-43.3.7-65 .5z" transform="matrix(.49792 0 0 .49987 .3 .8)"/><path style="opacity:1" fill="#fe8274" d="m174.5 237.5-4.5-7a6.5 6.5 0 0 1 0-5 78 78 0 0 0 17.5-1.5l11.5-11.5c3.6-4.4 5-9.4 4-15l-8-8a9.7 9.7 0 0 1-1.5-4c-.2-1.7-.8-3-2-4-2.2-2-4.8-3.2-8-3.5a7 7 0 0 1-2.5-4.5 149.1 149.1 0 0 0-10-42c3-13.6-1.1-24.1-12.5-31.5-6.2-2-12.5-3-19-3l-2.5-2.5-1-10a364 364 0 0 0-9.5-19.5 38.8 38.8 0 0 0-31 6 15 15 0 0 0-4 5c-6-.4-12-.4-18 0a95.5 95.5 0 0 0-31 15 12 12 0 0 1-7 0c-2.3-2-5-3.2-8-3.5a5 5 0 0 0-6 0 7 7 0 0 0-2.5 2c-.2 2.7-.7 5.4-1.5 8-1.2-26.7-1.3-53.3-.5-80l1.5-1.5c73.4-1 146.7-.7 220 1a7884 7884 0 0 1 .5 217.5c-.4 1-.9 1.8-1.5 2.5-21 .5-42 .7-63 .5z" transform="matrix(.49792 0 0 .49987 .3 .8)"/><path style="opacity:1" fill="#070505" d="M155.5 101.5a6.4 6.4 0 0 0 5 5c.7 0 1 .3 1 1 1.2 2.7 3 5 5.5 7 0 5.3-.5 10.7-1.5 16-.2 2.4.8 4.1 3 5l1 2c-.6.2-1 .7-1 1.5 5.3 13 8.3 26.5 9 40.5 1.1.6 2.1 1.5 3 2.5 3.7 0 7 1 10 3l-3 1.5c-1 .5-1.2 1.2-.5 2 4.9 3.9 9.4 8 13.5 12.5a296 296 0 0 1-9 14.5c-2-.3-3.6 0-5 1a13 13 0 0 0-7 1c1.5 1 3.2 1.3 5 1v4c-2.7.2-5-.6-7-2.5-3.6-.8-7-.6-10.5.5l-3.5 7c2 4.5 4.4 8.8 7 13-50.7.2-101.3 0-152-.5-2.5-.5-4-2-4.5-4.5-.8-42.7-.7-85.3.5-128 3-2 5-4.6 6-8 1-2.8 1.8-5.8 2.5-9 .4-.5 1-.8 1.5-1a76 76 0 0 1 14 9 50 50 0 0 1 11-5.5 14 14 0 0 1 3-4c9.4-4.8 19.2-8.3 29.5-10.5 2.7 2.1 5.5 4.1 8.5 6l8.5-11c2.3 1.1 3.8.3 4.5-2.5 6.4-2 13-3.5 19.5-4.5 2.6 4.3 4.2 9 5 14l4.5 6.5c-.8 3.8-.6 7.6.5 11.5 1 1.4 2.4 2.4 4 3 6.1-.3 12.3-.3 18.5 0z" transform="matrix(.49792 0 0 .49987 .3 .8)"/><path style="opacity:1" fill="#271a18" d="M191.5 181.5c0 .5-.4.9-1 1-4-1.2-7.8-2.5-11.5-4a101 101 0 0 0-9.5-41l-1-2c2.3-.4 2.2-1-.5-2l-.5-3.5c1-5.2 1.5-10.3 1.5-15.5l-6-8c-.4.6-.9.9-1.5 1 0-.7-.3-1-1-1 .1-.6.4-1.1 1-1.5-2-1.4-3.9-2.6-6-3.5-6.7-1.5-13.5-2.5-20.5-3a23.6 23.6 0 0 1-1-13 21 21 0 0 1-4-5c-.9-4.5-2.2-8.8-4-13a6.6 6.6 0 0 0-5.5-2 49 49 0 0 0-22 6.5l-7 9c-1 .7-2 .7-3 0a8.5 8.5 0 0 0-9-4c-7.1 2-14.1 4.3-21 7a156 156 0 0 1-18 11c-5.3-.6-10-3-14-7 .2-.4.6-.6 1-.5 3 .3 5.7 1.5 8 3.5 2.3.7 4.7.7 7 0a95.5 95.5 0 0 1 31-15c6-.4 12-.4 18 0 1-2 2.3-3.6 4-5a38.8 38.8 0 0 1 31-6 364 364 0 0 1 9.5 19.5l1 10 2.5 2.5c6.5 0 12.8 1 19 3 11.4 7.4 15.5 17.9 12.5 31.5a148 148 0 0 1 10 42 7 7 0 0 0 2.5 4.5c3.2.3 5.8 1.5 8 3.5z" transform="matrix(.49792 0 0 .49987 .3 .8)"/><path style="opacity:1" fill="#bc6f5d" d="M155.5 101.5c-6.2-.3-12.4-.3-18.5 0-1.6-.6-3-1.6-4-3a23.5 23.5 0 0 1-.5-11.5l-4.5-6.5c-.8-5-2.4-9.7-5-14-6.6 1-13 2.5-19.5 4.5-.7 2.8-2.2 3.6-4.5 2.5l-8.5 11c-3-1.9-5.8-3.9-8.5-6A121.2 121.2 0 0 0 52.5 89a14 14 0 0 0-3 4 50 50 0 0 0-11 5.5 76 76 0 0 0-14-9c-.6.2-1 .5-1.5 1-.7 3.2-1.5 6.2-2.5 9 .2-1.3-.1-2.3-1-3 .2-3.4 1.6-6.3 4-8.5-.6-.5-1.3-.6-2-.5a5 5 0 0 1 6 0c-.4 0-.8.1-1 .5 4 4 8.7 6.4 14 7a156 156 0 0 0 18-11c6.9-2.7 13.9-5 21-7 3.8-.6 6.8.7 9 4 1 .7 2 .7 3 0l7-9a49 49 0 0 1 22-6.5c2.2-.2 4 .5 5.5 2 1.8 4.2 3.1 8.5 4 13a21 21 0 0 0 4 5c-.9 4.4-.6 8.7 1 13 7 .5 13.8 1.5 20.5 3z" transform="matrix(.49792 0 0 .49987 .3 .8)"/><path style="opacity:1" fill="#bd6f5e" d="M155.5 101.5c2.1 1 4 2 6 3.5-.6.4-.9.9-1 1.5a6.4 6.4 0 0 1-5-5z" transform="matrix(.49792 0 0 .49987 .3 .8)"/><path style="opacity:1" fill="#be715f" d="M168.5 135.5c-2.2-.9-3.2-2.6-3-5 1-5.3 1.5-10.7 1.5-16-2.5-2-4.3-4.3-5.5-7 .6-.1 1.1-.4 1.5-1l6 8c0 5.2-.5 10.3-1.5 15.5l.5 3.5c2.7 1 2.8 1.6.5 2z" transform="matrix(.49792 0 0 .49987 .3 .8)"/><path style="opacity:1" fill="#1d1412" d="M38.5 130.5c11.7-1 19.2 4 22.5 15 .7 16 .4 31.6-1 47 1.6 1.5 3.4 2.7 5.5 3.5l19 1c5 .4 9.9 1.5 14.5 3.5a5.3 5.3 0 0 0 4-5 88.6 88.6 0 0 1 8.5-33 9 9 0 0 0-3.5-7c-3.4-10.5-.3-18.4 9.5-23.5 3.3-.2 6.4-.7 9.5-1.5 3.7 1.9 7.5 3.4 11.5 4.5a21 21 0 0 1 1.5 12.5 34.9 34.9 0 0 1-6.5 12c.3 4 2.1 7 5.5 9 1.3 2.2 2.3 4.6 3 7 2.4 13 2.5 25.8.5 38.5.5.4.8 1 1 1.5-2 2.7-3.5 5.7-4.5 9-7.3-.1-14.8 0-22.5.5l20 1c-12.5 5.3-23 2.8-31.5-7.5A56.5 56.5 0 0 1 85.5 229c-5.3.2-10.4.7-15.5 1.5a231 231 0 0 1-32.5-1.5A22.8 22.8 0 0 1 22 205.5c-.9-20-.6-40 1-60 1.3-2.2 2.3-4.6 3-7 3.5-3.8 7.7-6.5 12.5-8z" transform="matrix(.49792 0 0 .49987 .3 .8)"/><path style="opacity:1" fill="#b36554" d="M116.5 137.5a112 112 0 0 1 21-1c.3 3.5 0 6.9-1 10v-9h-20z" transform="matrix(.49792 0 0 .49987 .3 .8)"/><path style="opacity:1" fill="#da8773" d="M98.5 208.5c0-1-.4-2-1-3-16.3-1-32.7-1.3-49-1v-4a61 61 0 0 1 .5-11 6.5 6.5 0 0 1 4.5-1 340 340 0 0 0-1.5-44c-7.3-5.8-14-5.1-20 2-1-2.4-1.6-2-2 1a1301 1301 0 0 0 0 70l4.5 4.5c19.3.5 38.7.7 58 .5a582.4 582.4 0 0 1-59 .5l-5.5-5.5c-.7-25-.7-50 0-75l5.5-5.5c7-.5 14-.7 21-.5v54h-5v13h51a6 6 0 0 1-2 5z" transform="matrix(.49792 0 0 .49987 .3 .8)"/><path style="opacity:1" fill="#e79783" d="M116.5 137.5h20v9a57.5 57.5 0 0 1-9 9c-5 .3-10 0-15-1-1-3.6-1.3-7.3-.5-11a13 13 0 0 0 4.5-6z" transform="matrix(.49792 0 0 .49987 .3 .8)"/><path style="opacity:1" fill="#eca591" d="M48.5 200.5c-.8-2.1-1.3-4.5-1.5-7-.6 3.8-1.6 3.8-3 0l-1 1c-4.2-3-7.4-2-9.5 3a8 8 0 0 1-4 1c-.2-17 0-34 .5-51 .4-3 1-3.4 2-1 6-7.1 12.7-7.8 20-2a340 340 0 0 1 1.5 44c-1.6-.2-3.1.1-4.5 1a61 61 0 0 0-.5 11z" transform="matrix(.49792 0 0 .49987 .3 .8)"/><path style="opacity:1" fill="#b56554" d="M116.5 137.5a13 13 0 0 1-4.5 6c-.8 3.7-.6 7.4.5 11 5 1 10 1.3 15 1-5.5 1-11.1 1.3-17 1-.2-4.7 0-9.3.5-14a37 37 0 0 1 5.5-5z" transform="matrix(.49792 0 0 .49987 .3 .8)"/><path style="opacity:1" fill="#c27361" d="M169.5 137.5a101 101 0 0 1 9.5 41c3.7 1.5 7.5 2.8 11.5 4 .6-.1 1-.5 1-1 1.2 1 1.8 2.3 2 4-2.5.3-3.7 1.7-3.5 4l8.5 6.5a6.1 6.1 0 0 1 3 5 56.4 56.4 0 0 1-9.5 15.5c-.4-.2-.6-.6-.5-1a296 296 0 0 0 9-14.5 121 121 0 0 0-13.5-12.5c-.7-.8-.5-1.5.5-2l3-1.5c-3-2-6.3-3-10-3-.9-1-1.9-1.9-3-2.5-.7-14-3.7-27.5-9-40.5 0-.8.4-1.3 1-1.5z" transform="matrix(.49792 0 0 .49987 .3 .8)"/><path style="opacity:1" fill="#c06c59" d="M111.5 217.5c-1-15.8-1.3-31.8-1-48h27v54c-7 .2-14 0-21-.5a38.5 38.5 0 0 1-5-5.5z" transform="matrix(.49792 0 0 .49987 .3 .8)"/><path style="opacity:1" fill="#efac98" d="M117.5 221.5h18c.2-6.3 0-12.7-.5-19 .5 8.3-1.2 9-5 2l-1 1-3-5a7 7 0 0 1-2.5 2c-1-1.3-2-1.3-3 0a74.3 74.3 0 0 0-6.5 8l-1-9c-.5 5.3-.7 10.7-.5 16h-1v-47h25v52c-6.5.3-12.9 0-19-1z" transform="matrix(.49792 0 0 .49987 .3 .8)"/><path style="opacity:1" fill="#261a17" d="M193.5 185.5c.2 1.4.7 2.8 1.5 4l8 8c1 5.6-.4 10.6-4 15L187.5 224a78 78 0 0 1-17.5 1.5 6.5 6.5 0 0 0 0 5l4.5 7c-1.3 0-2 .7-2 2a79 79 0 0 0-6.5-9c-1.2-5.6 1-8.6 6.5-9 3.6.6 7.1 1.6 10.5 3 3-1.3 4.2-3.6 3.5-7 5.3-.3 5.3-.7 0-1 1.4-1 3-1.3 5-1 0 .4.1.8.5 1 4-4.7 7.2-9.8 9.5-15.5a6.1 6.1 0 0 0-3-5l-8.5-6.5c-.2-2.3 1-3.7 3.5-4z" transform="matrix(.49792 0 0 .49987 .3 .8)"/><path style="opacity:1" fill="#f4b9a5" d="m117.5 221.5-5-4c-.2-5.3 0-10.7.5-16l1 9a71 71 0 0 1 6.5-8c1-1.3 2-1.3 3 0a7 7 0 0 0 2.5-2l3 5 1-1c3.8 7 5.5 6.3 5-2 .5 6.3.7 12.7.5 19h-18z" transform="matrix(.49792 0 0 .49987 .3 .8)"/><path style="opacity:1" fill="#f2b6a2" d="M48.5 200.5v4c16.3-.3 32.7 0 49 1 .6 1 1 2 1 3-1.7 4.8-3.7 9.5-6 14-19.3.2-38.7 0-58-.5l-4.5-4.5a181 181 0 0 1-.5-19 8 8 0 0 0 4-1c2.1-5 5.3-6 9.5-3l1-1c1.4 3.8 2.4 3.8 3 0 .2 2.5.7 4.9 1.5 7z" transform="matrix(.49792 0 0 .49987 .3 .8)"/><path style="opacity:1" fill="#c57361" d="M186.5 216.5c5.3.3 5.3.7 0 1 .7 3.4-.5 5.7-3.5 7a43.2 43.2 0 0 0-10.5-3c-5.6.4-7.7 3.4-6.5 9a79 79 0 0 1 6.5 9v1h-2a121 121 0 0 1-7-13l3.5-7c3.4-1.1 7-1.3 10.5-.5 2 1.9 4.3 2.7 7 2.5v-4c-1.8.3-3.5 0-5-1a13 13 0 0 1 7-1z" transform="matrix(.49792 0 0 .49987 .3 .8)"/></g></svg>