<?xml version="1.0" encoding="UTF-8" standalone="no"?>
<svg
   width="16"
   height="16"
   version="1.1"
   id="svg1"
   sodipodi:docname="Designer.svg"
   xml:space="preserve"
   inkscape:version="1.3.2 (091e20e, 2023-11-25, custom)"
   xmlns:inkscape="http://www.inkscape.org/namespaces/inkscape"
   xmlns:sodipodi="http://sodipodi.sourceforge.net/DTD/sodipodi-0.dtd"
   xmlns="http://www.w3.org/2000/svg"
   xmlns:svg="http://www.w3.org/2000/svg"><defs
     id="defs1" /><sodipodi:namedview
     id="namedview1"
     pagecolor="#505050"
     bordercolor="#eeeeee"
     borderopacity="1"
     inkscape:showpageshadow="0"
     inkscape:pageopacity="0"
     inkscape:pagecheckerboard="0"
     inkscape:deskcolor="#505050"
     showgrid="false"
     inkscape:zoom="71.6875"
     inkscape:cx="7.9930253"
     inkscape:cy="8"
     inkscape:window-width="2560"
     inkscape:window-height="1361"
     inkscape:window-x="-9"
     inkscape:window-y="-9"
     inkscape:window-maximized="1"
     inkscape:current-layer="svg1" /><style
     type="text/css"
     id="style1">
	.stone_een{fill:#0B1719;}
</style><path
     class="stone_een"
     d="M 7.5219974,4.6539806 H 8.478003 V 5.6099862 H 7.5219974 Z m -4.063024,0 c -0.1319288,0 -0.2390014,0.1070724 -0.2390014,0.2390014 0,0.1319287 0.1070723,0.2390014 0.2390014,0.2390014 0.1319288,0 0.2390014,-0.1070723 0.2390014,-0.2390014 0,-0.1319287 -0.1070723,-0.2390014 -0.2390014,-0.2390014 z M 10.629016,13.736033 H 9.9120108 V 12.780027 H 6.0879889 v 0.956006 H 5.3709847 c -0.1319287,0 -0.2390014,0.107072 -0.2390014,0.239002 0,0.131929 0.1070724,0.239001 0.2390014,0.239001 h 5.2580313 c 0.131929,0 0.239001,-0.107071 0.239001,-0.239001 0,-0.131929 -0.107071,-0.239002 -0.239001,-0.239002 z M 15.648045,3.2199721 v 7.6480449 c 0,0.79205 -0.641957,1.434007 -1.434008,1.434007 H 1.7859635 c -0.79205057,0 -1.43400833,-0.641957 -1.43400833,-1.434007 V 3.2199721 c 0,-0.7920507 0.64195776,-1.4340084 1.43400833,-1.4340084 H 14.214037 c 0.792051,0 1.434008,0.6419577 1.434008,1.4340084 z m -2.406266,1.517181 C 13.184418,4.4637355 12.961191,4.2448101 12.687296,4.1903178 12.313498,4.1167054 11.982242,4.3337186 11.868476,4.6539806 H 8.9560058 V 4.1759778 H 7.0439945 V 4.6539806 H 4.1320013 C 4.0182368,4.3337186 3.6865027,4.1167054 3.3131825,4.1903178 3.0392869,4.2443321 2.8160597,4.4637355 2.7586992,4.7371531 c -0.09799,0.4641408 0.2533416,0.8728331 0.7002742,0.8728331 0.3116579,0 0.5745595,-0.2002832 0.6730279,-0.4780028 H 7.0439945 V 5.2390557 C 4.9465182,5.6678246 3.3418628,7.4655931 3.226664,9.6586701 3.2194984,9.7958568 3.3284786,9.9120119 3.4661435,9.9120119 v 0 c 0.1257148,0 0.2313534,-0.097512 0.2375674,-0.2232277 C 3.8036139,7.7457028 5.2017717,6.1467833 7.0439945,5.726619 v 0.36137 H 8.9560058 V 5.7261408 c 1.8422222,0.4206425 3.2403812,2.019562 3.3402832,3.9621654 0.0067,0.1261927 0.111854,0.2237057 0.237568,0.2237057 v 0 c 0.137664,0 0.246649,-0.1161551 0.239479,-0.2533418 C 12.658138,7.4655931 11.053481,5.6678246 8.9560058,5.239056 V 5.1319837 h 2.9119932 c 0.09895,0.2777196 0.36137,0.4780028 0.673028,0.4780028 0.446932,0 0.798265,-0.4086923 0.700752,-0.8728334 z m -0.700752,-0.083172 c -0.131929,0 -0.239001,0.1070724 -0.239001,0.2390014 0,0.1319287 0.107071,0.2390014 0.239001,0.2390014 0.131929,0 0.239001,-0.1070723 0.239001,-0.2390014 0,-0.1319287 -0.107071,-0.2390014 -0.239001,-0.2390014 z"
     id="path1"
     style="stroke-width:0.478003;fill:#ffffff" /></svg>
