<svg width="16" height="16" xml:space="preserve" xmlns="http://www.w3.org/2000/svg"><path d="M137.8184 129.6191a16.5811 16.5811 0 0 0-1.1582.248.5695.5695 0 0 0-.297.215c-.1385.009-.2548.063-.3476.164-.1212.1763-.242.353-.3633.5293l-.3144-.3145a1.8692 1.8692 0 0 1-.2148-.0488 8.5706 8.5706 0 0 0-1.9668.6778c-.1718.0577-.2927.1674-.3633.33a8.312 8.312 0 0 0-.6114.2813c-.2586-.1703-.518-.3404-.7773-.5117-.2079-.0514-.3669.0202-.4785.2148a3.4527 3.4527 0 0 0-.1328.5606 2.9058 2.9058 0 0 0-.1973.3652c-.0682.0361-.1398.0407-.2148.0156a6.9462 6.9462 0 0 0-.3633-.1152c-.121.009-.2148.0629-.2813.164-.0622.263-.118.529-.166.795-.0703-.0141-.142.002-.2148.0488-.2335.2924-.1777.523.166.6933a.5179.5179 0 0 0-.1328.3145c.0177.1257.0512.2466.0996.3633a.7178.7178 0 0 0-.166.332.1636.1636 0 0 0-.0996.0156c-.1291.1746-.1291.3513 0 .5293-.0411.148-.0793.2959-.1153.4453-.1463.1409-.1732.3018-.082.4805a3.109 3.109 0 0 0-.0664.6777 3.4325 3.4325 0 0 0-.662.0977c-.2415-.0631-.4833-.0565-.7267.0176-.2252.2194-.214.4276.0332.627-.25.0869-.3328.259-.248.5136a1.872 1.872 0 0 1 .166.3633c.1389.1278.2644.2664.379.414.2838.1834.5767.3535.8769.5118a.6357.6357 0 0 1-.082.3144c.044.0771.044.1534 0 .2305.0496.1818.1639.298.3457.3477.122-.0556.243-.1114.3633-.166a2.054 2.054 0 0 1 .2812.084c.0551.077.111.1533.166.2304a.3895.3895 0 0 0-.0996.248c.005.181.0942.2906.2656.3302a.5911.5911 0 0 0 .0488.2324c.1501.1653.3315.2415.545.2304a.1259.1259 0 0 1-.0332.0508c.033.0771.0666.1534.0996.2305a1.5734 1.5734 0 0 0-.2305.5625c.0561.284.2196.4653.4941.545.1605-.088.326-.1708.4961-.2481.134-.0117.2615-.007.3809.0156.004.1566-.0183.311-.0664.4629a32.5552 32.5552 0 0 0-.4785 1.3222c.0203.2244.1189.4076.2969.547.1378.0921.281.1032.4296.0331a1.778 1.778 0 0 0 .4473-.5469 8.1877 8.1877 0 0 1 1.205-1.0898 1.477 1.477 0 0 1 .629.3476c.2217.0913.403.0401.545-.1503a4.7663 4.7663 0 0 0 1.8183-.0977.5837.5837 0 0 1 .1816.1484 1.358 1.358 0 0 1 .4297.164c.3416.2314.6838.464 1.0254.6954.123.058.2438.058.3633 0 .2424-.2865.4841-.5729.7265-.8594.168-.0154.3066-.0871.4141-.2148.0377-.3985-.1345-.6625-.5137-.793-.0477-.06-.0634-.127-.0488-.1992a17.909 17.909 0 0 0 1.7363.5957 2.1737 2.1737 0 0 0 .1973-.084 7.6262 7.6262 0 0 0 .5117-.6778c.0941-.2057.0737-.4028-.0644-.5937-.2314-.3526-.4639-.706-.6953-1.0586-.0474-.1553-.009-.292.1153-.4121a1.6242 1.6242 0 0 1 .4628 0 1.001 1.001 0 0 0 .4141.1816c.2745-.0305.402-.1848.3809-.4629.1616.0237.2982-.021.412-.1328.176-.2633.3527-.5274.5294-.793.1067-.1675.129-.333.0664-.496a7.3743 7.3743 0 0 0-.7774-.6622c.1304-.1668.1193-.3258-.0332-.4785-.1755-.1284-.368-.1665-.578-.1152a.295.295 0 0 1-.1329-.0996c-.0307-.8942-.2166-1.7534-.5605-2.5781.0567-.2155-.0103-.381-.1993-.4961.0275-.3522.0656-.7056.1153-1.0586a1.126 1.126 0 0 0-.0488-.2637 2.3407 2.3407 0 0 0-.3477-.3145c.0225-.2313-.0872-.3522-.33-.3632a.9882.9882 0 0 0-.1993-.2305 4.86 4.86 0 0 0-1.3222-.084.2373.2373 0 0 1-.082-.0664 3.8043 3.8043 0 0 0-.1153-.4121 1.5231 1.5231 0 0 0 .0996-.2969c-.0529-.185-.158-.3349-.3144-.4473a22.5946 22.5946 0 0 0-.2989-.9257.5886.5886 0 0 0-.3457-.1973zm-.0664.2305a.4852.4852 0 0 1 .2148.0664c.1124.293.2109.5906.2969.8926.0726.1235.162.2332.2656.33a3.2035 3.2035 0 0 1-.0508.3477c.0342.1823.0724.3636.1152.545.0797.0686.169.1245.2657.166a9.5101 9.5101 0 0 1 .3144-.0664 23.87 23.87 0 0 1 .9258.1152c.0648.0979.141.1872.2305.2656.0643-.004.1247.0004.1816.0156a.7678.7678 0 0 1 0 .166c.1056.1357.2264.2566.3633.3633a28.713 28.713 0 0 1-.0977 1.289.7111.7111 0 0 0 .1973.1661v.2637c.3646.8312.5524 1.7016.5625 2.6113a.8576.8576 0 0 0 .2812.2813c.1824-.0379.3572-.0156.5274.0663.065.1338.0224.1989-.131.1973-.0335.0347-.0401.0728-.0175.1152.2975.2535.595.5083.8926.7618.0167.1327-.0168.2535-.0996.3632a5.5958 5.5958 0 0 1-.5117.7266 2.9622 2.9622 0 0 0-.793.1484 1.736 1.736 0 0 1 .33.0508c.0782.2026.0132.2853-.1972.248a.4672.4672 0 0 1-.2656-.166 2.9726 2.9726 0 0 0-.627 0c-.1743.1837-.2682.3985-.2812.6446.32.4417.6064.9048.8593 1.3887a.1419.1419 0 0 1 0 .1328 4.9805 4.9805 0 0 0-.3964.5605.3229.3229 0 0 1-.166.0996 39.9497 39.9497 0 0 1-1.7344-.578c-.1317-.047-.221-.009-.2657.1152.029.1637.0847.318.166.4628.2658.0558.4313.2167.4962.4805a.1527.1527 0 0 1-.0664.0976l-.2325.0332a34.184 34.184 0 0 1-.8261.9434 42.7103 42.7103 0 0 1-1.1895-.7774 1.9115 1.9115 0 0 0-.3633-.1328.4764.4764 0 0 1-.1328-.164 15.7107 15.7107 0 0 0-1.1894.1484 4.7185 4.7185 0 0 0-.9258-.0176.1774.1774 0 0 0-.0996.1172c-.0635.0377-.1286.0423-.1973.0156-.2476-.2486-.5452-.3695-.8926-.3633a7.221 7.221 0 0 1-.5957.5625 4.482 4.482 0 0 0-.7441.8418 2.0743 2.0743 0 0 1-.33.2969c-.1854-.084-.2904-.2272-.3145-.4297.1591-.4508.32-.9008.4804-1.3535a5.8593 5.8593 0 0 1 .082-.3809 1.783 1.783 0 0 1-.082-.2149.233.233 0 0 0-.1504-.0996c-.0882.0441-.1755.0441-.2636 0a3.2643 3.2643 0 0 1-.2637.0488 2.2036 2.2036 0 0 0-.3809.2149c-.0993-.008-.1373-.0619-.1152-.164-.098-.008-.1427-.0635-.1328-.166.0355-.2033.1229-.38.2637-.5294a.8908.8908 0 0 1-.1309-.2637c.006-.1263-.0502-.2314-.166-.3144-.0763-.025-.1414-.007-.1973.0508-.1116-.0181-.1898-.0785-.2324-.1816.0556-.0626.0714-.1343.0488-.2149-.0881-.022-.1755-.0444-.2637-.0664a.309.309 0 0 1 0-.1992.5243.5243 0 0 0 .082-.164 2.4125 2.4125 0 0 1-.1816-.3321 1.8881 1.8881 0 0 0-.545-.1973.9765.9765 0 0 1-.3632.1485.1554.1554 0 0 1-.0664-.0996c.0416-.0722.0416-.1439 0-.2149a1.1924 1.1924 0 0 0 .082-.4297 44.5027 44.5027 0 0 1-.9746-.578 2.8321 2.8321 0 0 0-.3477-.381c-.011-.066-.0222-.1311-.0332-.1972-.1283-.09-.144-.1951-.0488-.3145.208.0118.34-.082.3965-.2812a.2394.2394 0 0 0-.0664-.082c-.1098-.002-.2037-.0401-.2812-.1153a.1987.1987 0 0 1 .0176-.1836c.207-.0709.4106-.0643.6113.0176a6.9514 6.9514 0 0 1 .8105-.1484l.0488-.0508a4.3685 4.3685 0 0 0 .0488-1.0078c.0381-.0603.0781-.1207.1172-.1816a6.0195 6.0195 0 0 1 .1485-.5957.4027.4027 0 0 0-.0996-.2149.5175.5175 0 0 1 .1484-.1816c.0248-.1245.0918-.223.1992-.2969a.309.309 0 0 0 0-.1992.6863.6863 0 0 1-.084-.2793 1.1696 1.1696 0 0 1 .1992-.4473 3.3506 3.3506 0 0 1-.33-.1484c-.0944-.1065-.0832-.2005.0332-.2813.0732.0853.1447.0853.2148 0a10.14 10.14 0 0 0 .1973-.8926.2097.2097 0 0 1 .0996-.0332c.1547.0608.3137.1055.4785.1329.1207-.008.2146-.064.2812-.166a2.8905 2.8905 0 0 1 .1993-.3633 1.8832 1.8832 0 0 1 .164-.627l.1328-.0664c.3015.203.6056.4.9102.5938a2.462 2.462 0 0 1 .2637-.1817 1.606 1.606 0 0 0 .496-.1972 1.1874 1.1874 0 0 0 .0996-.1993 9.4341 9.4341 0 0 1 1.9493-.7265.5428.5428 0 0 1 .2656 0c.116.1545.248.2911.3965.412a.5834.5834 0 0 0 .1152-.0644 6.9556 6.9556 0 0 1 .4453-.6777h.1992l.1973-.2325c.3753-.0997.751-.1824 1.125-.248z" style="opacity:.648;fill:#fefcfc" transform="translate(-127.3236 -129.4514)"/><path d="M137.752 129.8496c-.374.0656-.7497.1483-1.125.248l-.1973.2325h-.1992a6.9556 6.9556 0 0 0-.4453.6777.592.592 0 0 1-.1153.0645 2.344 2.344 0 0 1-.3965-.4121.5428.5428 0 0 0-.2656 0 9.4344 9.4344 0 0 0-1.9492.7266 1.1885 1.1885 0 0 1-.0996.1992 1.604 1.604 0 0 1-.4961.1972 2.4625 2.4625 0 0 0-.2637.1817 42.0437 42.0437 0 0 1-.9101-.5938l-.1328.0664a1.8856 1.8856 0 0 0-.1641.627 2.893 2.893 0 0 0-.1992.3633c-.0666.1021-.1606.158-.2813.166a2.3713 2.3713 0 0 1-.4785-.1328.2119.2119 0 0 0-.0996.0332c-.0527.3005-.1177.598-.1973.8925-.07.0853-.1416.0853-.2148 0-.1164.0808-.1276.1748-.0332.2813a3.369 3.369 0 0 0 .33.1484 1.1686 1.1686 0 0 0-.1991.4473c.007.0996.0364.1915.084.2793a.309.309 0 0 1 0 .1992c-.1074.0738-.1744.1724-.1993.2969a.5164.5164 0 0 0-.1484.1816.4026.4026 0 0 1 .0996.2149 6.0055 6.0055 0 0 0-.1484.5957c-.0391.061-.0791.1214-.1172.1816.0225.3364.007.6721-.0488 1.0078l-.0488.0508a6.9514 6.9514 0 0 0-.8106.1485c-.2007-.082-.4043-.0884-.6113-.0176a.1988.1988 0 0 0-.0176.1836c.0775.0752.1714.1132.2813.1152a.2383.2383 0 0 1 .0664.082c-.0565.1992-.1886.293-.3965.2813-.0952.1193-.0795.2244.0488.3144.011.0661.0222.1312.0332.1973.1279.1168.2441.2442.3476.3808.3234.1975.648.39.9746.5782a1.194 1.194 0 0 1-.082.4296c.0416.071.0416.1427 0 .2149a.1569.1569 0 0 0 .0664.0996.9754.9754 0 0 0 .3633-.1485 1.891 1.891 0 0 1 .545.1973 2.395 2.395 0 0 0 .1816.332.5241.5241 0 0 1-.082.1641.309.309 0 0 0 0 .1992c.0882.0221.1755.0444.2636.0664.0225.0806.007.1522-.0488.2149.0426.1031.1208.1635.2325.1816.0559-.058.1209-.0758.1972-.0508.1158.083.1716.1881.166.3145a.8929.8929 0 0 0 .131.2636c-.1409.1494-.2282.326-.2638.5293-.01.1026.0348.1584.1329.166-.0222.1022.016.156.1152.1641a2.2017 2.2017 0 0 1 .3808-.2148 3.2635 3.2635 0 0 0 .2637-.0488c.0882.044.1755.044.2637 0a.233.233 0 0 1 .1504.0996c.023.0735.0499.145.082.2148a5.7938 5.7938 0 0 0-.082.3809c-.1604.4527-.3213.9027-.4805 1.3535.0241.2025.1292.3457.3145.4297a2.0739 2.0739 0 0 0 .33-.2969 4.4823 4.4823 0 0 1 .7442-.8418c.21-.177.409-.365.5957-.5625.3474-.006.645.1147.8926.3633.0687.0267.1337.022.1972-.0156a.1776.1776 0 0 1 .0996-.1172 4.7108 4.7108 0 0 1 .9258.0176c.3967-.065.7928-.1142 1.1895-.1484a.4773.4773 0 0 0 .1328.164c.1255.0317.2464.0764.3632.1328.3923.2655.7884.525 1.1895.7774.2807-.3083.556-.6236.8262-.9434l.2324-.0332a.1515.1515 0 0 0 .0664-.0976c-.0649-.2638-.2304-.4247-.4961-.4804a1.4554 1.4554 0 0 1-.166-.463c.0447-.124.134-.1621.2656-.1152.574.206 1.1514.3985 1.7344.5782a.3228.3228 0 0 0 .166-.0996 4.9805 4.9805 0 0 1 .3965-.5606.1419.1419 0 0 0 0-.1328 11.228 11.228 0 0 0-.8594-1.3887c.013-.2461.107-.461.2813-.6445a2.9726 2.9726 0 0 1 .627 0 .467.467 0 0 0 .2655.166c.2104.0373.2754-.0455.1973-.248a1.722 1.722 0 0 0-.33-.0508 2.9642 2.9642 0 0 1 .7929-.1485c.1898-.2285.36-.4702.5117-.7265.0828-.1097.1163-.2306.0996-.3633-.2975-.2535-.595-.5083-.8926-.7617-.0226-.0424-.016-.0806.0176-.1153.1533.002.196-.0635.1309-.1972-.1702-.082-.345-.1043-.5273-.0664a.8576.8576 0 0 1-.2813-.2813c-.01-.9097-.1979-1.78-.5625-2.6113v-.2637a.709.709 0 0 1-.1973-.166c.0426-.428.0742-.8577.0977-1.289a2.0728 2.0728 0 0 1-.3632-.3633.7678.7678 0 0 0 0-.166.553.553 0 0 0-.1817-.0157 1.32 1.32 0 0 1-.2305-.2656 23.94 23.94 0 0 0-.9257-.1152 9.5101 9.5101 0 0 0-.3145.0664 1.0268 1.0268 0 0 1-.2656-.166 11.919 11.919 0 0 1-.1152-.545 3.155 3.155 0 0 0 .0508-.3476 1.4686 1.4686 0 0 1-.2657-.3301 10.593 10.593 0 0 0-.2968-.8926.4901.4901 0 0 0-.2149-.0664zm-5.506 4.6895c.344 0 .6864.0126 1.0274.037a96.1404 96.1404 0 0 1 0 3.5704.9832.9832 0 0 1-.3476.0332v.8593a174.29 174.29 0 0 1 3.4375.0176.1614.1614 0 0 1 .0332.082 7.7678 7.7678 0 0 1-.5957 1.3067 114.7371 114.7371 0 0 1-3.9004 0l-.4121-.414a94.9239 94.9239 0 0 1-.0332-4.9923 9.5701 9.5701 0 0 1 .4453-.496c.115-.003.231-.004.3457-.004zm5.5802.002c.3388 0 .6769.007 1.0156.0195.0378.2121.0443.427.0176.6445l-.6777.6777a8.998 8.998 0 0 1-1.0918 0l-.0488-.0488a5.1801 5.1801 0 0 1 0-.8281c.1554-.15.3052-.3043.4472-.4629.113-.001.225-.002.338-.002zm-.3067 2.2148c.4298 0 .8614.007 1.291.0195l.0489.0488c.006.6005.01 1.2022.0156 1.8027a25.0577 25.0577 0 0 1-.0644 1.8184 13.1938 13.1938 0 0 1-1.3223 0 4.5923 4.5923 0 0 1-.4473-.4805 72.8292 72.8292 0 0 1 0-3.1074c.017-.034.0327-.0674.0488-.0996.1433-.001.2865-.002.4297-.002z" style="opacity:1;fill:#ce635d" transform="translate(-127.3236 -129.4514)"/><path d="M132.246 134.539c-.1145 0-.2306.001-.3456.004a9.5701 9.5701 0 0 0-.4453.4961 94.9239 94.9239 0 0 0 .0332 4.9922l.412.4141c1.3003.0221 2.6003.0221 3.9005 0a7.7678 7.7678 0 0 0 .5957-1.3066.1646.1646 0 0 0-.0332-.082 179.0435 179.0435 0 0 0-3.4375-.0176v-.8594a.9832.9832 0 0 0 .3476-.0332 96.1404 96.1404 0 0 0 0-3.5703 14.3887 14.3887 0 0 0-1.0273-.0371zm5.5802.002c-.113 0-.225.0006-.338.002a8.8052 8.8052 0 0 1-.4472.463 5.1801 5.1801 0 0 0 0 .828l.0488.0488a8.998 8.998 0 0 0 1.0918 0l.6778-.6777a2.1531 2.1531 0 0 0-.0176-.6445 27.7407 27.7407 0 0 0-1.0157-.0195zm-.3067 2.2149c-.1432 0-.2864.0005-.4297.002-.016.0322-.0319.0657-.0488.0996a72.8292 72.8292 0 0 0 0 3.1074c.1367.1697.2864.3306.4473.4805.4407.022.8815.022 1.3223 0a24.9839 24.9839 0 0 0 .0644-1.8184c-.006-.6005-.0101-1.2022-.0156-1.8027l-.0488-.0488a44.8157 44.8157 0 0 0-1.291-.0195z" style="opacity:1;fill:#fefdfd" transform="translate(-127.3236 -129.4514)"/></svg>