<?xml version="1.0" encoding="UTF-8" standalone="no"?>
<svg
   width="16"
   height="16"
   version="1.1"
   id="svg2"
   sodipodi:docname="GodotMonochrome.svg"
   xml:space="preserve"
   inkscape:version="1.3.2 (091e20e, 2023-11-25, custom)"
   xmlns:inkscape="http://www.inkscape.org/namespaces/inkscape"
   xmlns:sodipodi="http://sodipodi.sourceforge.net/DTD/sodipodi-0.dtd"
   xmlns="http://www.w3.org/2000/svg"
   xmlns:svg="http://www.w3.org/2000/svg"><defs
     id="defs2" /><sodipodi:namedview
     id="namedview2"
     pagecolor="#505050"
     bordercolor="#eeeeee"
     borderopacity="1"
     inkscape:showpageshadow="0"
     inkscape:pageopacity="0"
     inkscape:pagecheckerboard="0"
     inkscape:deskcolor="#505050"
     inkscape:zoom="35.84375"
     inkscape:cx="-0.1673932"
     inkscape:cy="8.2441151"
     inkscape:window-width="2560"
     inkscape:window-height="1361"
     inkscape:window-x="-9"
     inkscape:window-y="-9"
     inkscape:window-maximized="1"
     inkscape:current-layer="svg2" /><g
     style="clip-rule:evenodd;fill-rule:evenodd;image-rendering:optimizeQuality;shape-rendering:geometricPrecision;text-rendering:geometricPrecision"
     id="g2"
     transform="matrix(0.03397484,0,0,0.03397484,-0.66245223,-0.66254271)"><path
       style="opacity:0.981"
       fill="#fefffe"
       d="m 324.5,24.5 c 3.35,-0.165 6.683,0.0017 10,0.5 0.5,0.5 1,1 1.5,1.5 3,9.3333 6,18.6667 9,28 2.877,3.5357 5.711,7.0357 8.5,10.5 -0.903,2.8766 -1.903,5.71 -3,8.5 1.596,5.889 3.263,11.7223 5,17.5 4.281,3.7081 9.114,4.5414 14.5,2.5 9.53,0.5242 19.03,1.3575 28.5,2.5 3.113,3.1126 6.279,6.279 9.5,9.5 1.388,-1.054 2.888,-1.22 4.5,-0.5 -0.006,2.563 0.494,5.063 1.5,7.5 2.703,3.038 5.703,5.705 9,8 0.985,1.866 1.485,3.866 1.5,6 -1.667,11.329 -2.834,22.662 -3.5,34 1.708,2.043 3.708,3.71 6,5 0.536,2.067 0.036,3.901 -1.5,5.5 11.773,26.192 17.94,53.692 18.5,82.5 2.167,2.167 4.333,4.333 6.5,6.5 2.838,0.37 5.671,0.203 8.5,-0.5 4,0.333 7.333,2 10,5 0.194,3.535 -1.64,5.201 -5.5,5 0.936,3.459 2.936,6.293 6,8.5 7.29,4.9 14.124,10.4 20.5,16.5 0.817,3.464 0.483,6.798 -1,10 -5.266,8.211 -10.766,16.211 -16.5,24 -7.773,1.073 -15.44,2.573 -23,4.5 3.03,0.288 5.864,0.455 8.5,0.5 3.113,6.96 0.947,10.126 -6.5,9.5 -3.003,-1.166 -5.67,-2.833 -8,-5 -6.333,-0.667 -12.667,-0.667 -19,0 -3.781,4.896 -6.781,10.229 -9,16 8.485,13.156 16.985,26.323 25.5,39.5 2.325,3.242 2.658,6.576 1,10 -4.246,5.491 -8.246,11.158 -12,17 -1.473,1.507 -3.307,2.174 -5.5,2 -19.125,-5.766 -38.125,-11.6 -57,-17.5 -1,1 -2,2 -3,3 1.44,5.215 3.44,10.215 6,15 9.825,1.152 14.325,6.652 13.5,16.5 -2.302,2.001 -4.802,2.501 -7.5,1.5 -8.237,9.147 -16.237,18.48 -24,28 -3.565,0.036 -6.898,-0.964 -10,-3 -12.353,-9.697 -25.686,-17.697 -40,-24 -1.243,-1.154 -2.243,-2.488 -3,-4 -12.172,1.057 -24.339,2.557 -36.5,4.5 -8,-0.667 -16,-1.333 -24,-2 -3.389,0.108 -5.556,1.775 -6.5,5 -1.921,1.141 -3.921,1.308 -6,0.5 -6.844,-6.672 -15.011,-10.839 -24.5,-12.5 -13.54,11.534 -26.54,23.868 -39,37 -2.691,5.697 -6.525,10.53 -11.5,14.5 -1.667,0.667 -3.333,0.667 -5,0 -6.432,-3.699 -8.932,-9.199 -7.5,-16.5 5.451,-11.685 10.118,-23.685 14,-36 1.585,-4.913 2.252,-9.913 2,-15 -0.792,-2.087 -1.959,-3.921 -3.5,-5.5 -3.547,0.368 -7.047,0.202 -10.5,-0.5 -2.856,0.371 -5.689,0.871 -8.5,1.5 -3.492,2.006 -6.826,4.172 -10,6.5 -3.875,-0.205 -5.541,-2.205 -5,-6 -2.809,-0.088 -4.142,-1.588 -4,-4.5 1.6,-6.199 4.267,-11.866 8,-17 -2.821,-3.127 -3.987,-6.627 -3.5,-10.5 -2.047,-5.405 -5.714,-7.072 -11,-5 -3.932,-0.099 -6.099,-2.099 -6.5,-6 0.656,-1.953 0.989,-3.953 1,-6 -6.9933,1.504 -9.8267,-1.163 -8.5,-8 1.2208,-1.274 2.0541,-2.774 2.5,-4.5 -1.4847,-3.971 -3.4847,-7.638 -6,-11 -5.2322,-2.133 -10.5656,-3.966 -16,-5.5 -2.4173,2.583 -5.2507,4.583 -8.5,6 -1,-1 -2,-2 -3,-3 -1.0617,-6.777 -0.2284,-13.277 2.5,-19.5 -9.8654,-6.43 -19.8654,-12.597 -30,-18.5 -3.0475,-4.092 -6.5475,-7.758 -10.5,-11 -1.0438,-2.215 -1.7105,-4.548 -2,-7 -2.4146,-2.532 -3.0813,-5.532 -2,-9 2.7367,-1.06 5.57,-1.894 8.5,-2.5 1.7095,-1.916 3.0428,-4.082 4,-6.5 -3.697,-1.523 -7.197,-3.523 -10.5,-6 -0.8959,-2.525 -0.3959,-4.692 1.5,-6.5 6.4626,-1.457 12.7959,-1.29 19,0.5 6.6076,-1.49 13.2743,-2.657 20,-3.5 2.176,-0.163 4.0093,-0.996 5.5,-2.5 0.3371,-8.22 1.1704,-16.387 2.5,-24.5 -0.2055,-1.865 -0.8722,-3.532 -2,-5 4.2656,-7.201 6.9323,-15.034 8,-23.5 -0.1962,-1.786 -1.0295,-3.119 -2.5,-4 -0.4955,-1.973 -0.6621,-3.973 -0.5,-6 1.6439,0.214 3.1439,-0.12 4.5,-1 0.3599,-2.108 1.0266,-4.108 2,-6 2.6353,-1.961 4.4686,-4.461 5.5,-7.5 -2.0257,-3.576 -3.359,-7.41 -4,-11.5 1.4465,-4.226 3.4465,-8.226 6,-12 -3.634,-1.573 -7.134,-3.573 -10.5,-6 -1.3624,-3.959 -0.3624,-6.959 3,-9 1.3957,2.027 3.0624,2.36 5,1 2.4496,-9.551 4.9496,-19.051 7.5,-28.5 5.6201,0.985 11.287,2.151 17,3.5 3.291,0.221 5.791,-1.113 7.5,-4 5.168,-7.1701 8.168,-15.1701 9,-24 0.224,-4.7397 2.558,-7.7397 7,-9 9.12,6.1386 18.287,12.1386 27.5,18 2.962,-1.8181 5.962,-3.6515 9,-5.5 4.479,-1.271 8.812,-2.9377 13,-5 1.504,-1.4907 2.337,-3.324 2.5,-5.5 20.136,-11.0628 41.47,-19.0628 64,-24 1.5,0.5 3,1 4.5,1.5 3.848,4.0156 7.848,7.8489 12,11.5 1.172,-0.4186 2.172,-1.0853 3,-2 4.054,-6.941 8.72,-13.441 14,-19.5 4.843,0.4862 8.176,-1.5138 10,-6 10.521,-3.7953 21.187,-6.6286 32,-8.5 z m -173,143 c 13.667,0 27.333,0 41,0 0,36 0,72 0,108 -3.606,-0.289 -7.106,0.044 -10.5,1 -0.5,8.994 -0.666,17.994 -0.5,27 35.002,-0.167 70.002,0 105,0.5 0.457,0.414 0.791,0.914 1,1.5 -5.615,13.06 -11.615,25.893 -18,38.5 -39.333,0.667 -78.667,0.667 -118,0 -3.833,-3.833 -7.667,-7.667 -11.5,-11.5 -1.657,-50.25 -1.99,-100.584 -1,-151 4.003,-4.835 8.17,-9.502 12.5,-14 z m 169,0 c 13.667,0 27.333,0 41,0 0.166,6.342 0,12.675 -0.5,19 -6.5,6.5 -13,13 -19.5,19.5 -11.243,0.82 -22.41,0.653 -33.5,-0.5 -0.667,-8.333 -0.667,-16.667 0,-25 4.37,-4.202 8.537,-8.536 12.5,-13 z m -12,67 c 17.577,-0.325 35.077,0.008 52.5,1 0.829,36.238 0.663,72.405 -0.5,108.5 -13.333,0.667 -26.667,0.667 -40,0 -4.167,-4.167 -8.333,-8.333 -12.5,-12.5 -0.825,-32.405 -0.659,-64.738 0.5,-97 z"
       id="path1" /></g></svg>
