<svg width="64" height="64" xml:space="preserve" xmlns="http://www.w3.org/2000/svg"><path fill="#fff" fill-opacity=".6" d="M14 5a4 4 0 0 0-4 4v46a4 4 0 0 0 4 4h36a4 4 0 0 0 4-4V22a1 1 0 0 0-.3-.7l-16-16A1 1 0 0 0 37 5zm0 2h22v12a4 4 0 0 0 4 4h12v32a2 2 0 0 1-2 2H14a2 2 0 0 1-2-2V9a2 2 0 0 1 2-2z"/><path d="M137.8 129.6c-.4 0-.8.2-1.1.3-.2 0-.3 0-.3.2l-.4.1-.3.6-.4-.3h-.2c-.7 0-1.3.3-2 .6l-.3.3-.6.3-.8-.5c-.2 0-.4 0-.5.2l-.1.6-.2.3h-.2a7 7 0 0 0-.4 0h-.3l-.1.9h-.2c-.3.3-.2.6.1.7l-.1.3v.7h-.2v1c-.2.2-.3.3-.2.5v.7h-.7l-.7.1c-.3.2-.2.4 0 .6-.2.1-.3.3-.2.5l.1.4.4.4.9.5-.1.3v.3c0 .2.2.3.3.3l.4-.1h.3l.2.3-.1.2c0 .2 0 .3.2.4v.2c.2.2.4.2.6.2v.3l-.2.6.5.5.5-.2h.4v.4l-.5 1.4c0 .2 0 .4.3.5.1.1.3.1.4 0l.4-.5 1.3-1.1.6.3c.2.1.4 0 .5-.1l1.8-.1.2.1.5.2 1 .7h.3l.8-.9c.1 0 .3 0 .4-.2 0-.4-.1-.6-.5-.8v-.2c.5.3 1 .5 1.7.6h.2l.5-.7-.1-.6-.7-1 .1-.5h.5l.4.2c.3 0 .4-.2.4-.5l.4-.1.5-.8c.1-.2.2-.3 0-.5l-.7-.7c.1-.1.1-.3 0-.4a.7.7 0 0 0-.6-.1l-.1-.1c0-1-.2-1.8-.6-2.6 0-.2 0-.4-.2-.5l.1-1v-.3l-.4-.4c0-.2 0-.3-.3-.3l-.2-.3h-1.3l-.1-.1-.1-.4v-.3c0-.2 0-.3-.2-.5l-.3-.9-.4-.2zm0 .2.2.1.3 1 .2.2v.9l.4.2h1.2l.2.3h.2v.2l.4.4-.1 1.2.2.2v.3c.3.8.5 1.7.5 2.6l.3.3h.5c.1.2 0 .2 0 .2l-.1.1.9.8-.1.4-.5.7a3 3 0 0 0-.8.1l.3.1c0 .2 0 .3-.2.2l-.2-.1a3 3 0 0 0-.7 0 1 1 0 0 0-.3.6l.9 1.4v.1a5 5 0 0 0-.4.6l-.2.1a40 40 0 0 1-2-.5l.2.5c.3 0 .4.2.5.5l-.3.1-.8 1a42.7 42.7 0 0 1-1.7-1.1l-1.2.1h-1v.1h-.2c-.3-.2-.6-.3-1-.3l-.5.5-.8.9a2 2 0 0 1-.3.3.5.5 0 0 1-.3-.4l.5-1.4v-.6h-.7c-.1 0-.3 0-.4.2 0 0-.1 0 0-.2-.2 0-.2 0-.2-.2l.2-.5v-.3l-.3-.3h-.2l-.2-.1v-.2h-.2v-.4l-.1-.4-.5-.2a1 1 0 0 1-.4.2v-.8a44.5 44.5 0 0 1-1.3-1v-.1c-.2-.1-.2-.2-.1-.3.2 0 .3-.1.4-.3v-.1l-.3-.1v-.2h.6l.8-.1v-1l.2-.3.2-.6-.1-.2.1-.2.2-.3v-.4l.1-.5-.3-.1v-.3h.2l.2-1h.1l.5.2c.1 0 .2 0 .3-.2l.2-.3c0-.3 0-.5.2-.7l1 .6.3-.2.5-.2v-.2c.7-.3 1.3-.6 2-.7h.3l.4.4.5-.8h.2l.2-.2 1.2-.3z" style="opacity:.648;fill:#fefcfc" transform="translate(-229.7 -225.5) scale(1.93325)"/><path d="m137.8 129.8-1.2.3-.2.2h-.2a7 7 0 0 0-.4.7h-.1c-.2 0-.3-.2-.4-.3h-.3c-.7.1-1.3.4-2 .7v.2l-.5.2-.3.2a42 42 0 0 1-1-.6l-.2.7-.2.3-.3.2-.5-.1-.3.9h-.2v.3l.3.1-.2.5.1.2v.2l-.2.3-.1.2v.8l-.2.2v1h-.1a7 7 0 0 0-.8.2h-.6v.2l.2.1h.1c0 .3-.2.4-.4.4v.5c.2 0 .3.2.4.4l1 .5v.7h.4l.5.1.2.4-.1.1v.2h.3v.3l.1.2h.2c.2 0 .2.1.2.2l.1.3a1 1 0 0 0-.2.5l.1.2.1.2.4-.2h.7v.6l-.5 1.4c0 .2.1.3.3.4l.3-.3.8-.9.6-.5.9.3h1.2l1.2-.2.1.2h.4l1.2.9.8-1h.2l.1-.1c0-.3-.2-.4-.5-.5l-.2-.5h.3a40 40 0 0 0 2 .4l.3-.6c-.2-.6-.5-1-.9-1.5l.3-.6h.7l.2.1c.2 0 .3 0 .2-.2h-.3l.8-.2.5-.7c0-.1.1-.3 0-.4l-.8-.8c.2 0 .2-.1.1-.3a.8.8 0 0 0-.5 0 .9.9 0 0 1-.3-.3 7 7 0 0 0-.5-2.6v-.3c-.1 0-.2 0-.2-.2v-1.2a2 2 0 0 1-.3-.4v-.2h-.2l-.2-.3a24 24 0 0 0-1.5-.2l-.1-.5v-.4l-.2-.3-.3-.9h-.2zm-5.6 4.7h1v3.6a1 1 0 0 1-.3 0v1a174.3 174.3 0 0 1 3.5 0l-.6 1.3h-3.9l-.4-.4v-5l.4-.5h.3zm5.6 0h1v.7l-.6.7a9 9 0 0 1-1.1 0v-.9l.4-.5h.3zm-.3 2.3h1.3v3.6h-1.3l-.5-.4v-3.2h.5z" style="opacity:1;fill:#ce635d" transform="translate(-229.7 -225.5) scale(1.93325)"/><path d="M132.2 134.5h-.3l-.4.5v5l.4.4h3.9l.6-1.3h-3.5v-1h.4v-3.5h-1zm5.6 0h-.3l-.5.5v.8h1.2l.7-.6v-.6h-1zm-.3 2.3h-.4v3.2l.4.4h1.3v-3.6h-1.3z" style="opacity:1;fill:#fefdfd" transform="translate(-229.7 -225.5) scale(1.93325)"/></svg>