<?xml version="1.0" encoding="UTF-8" standalone="no"?>
<svg
   width="16"
   height="16"
   version="1.1"
   id="svg1"
   sodipodi:docname="PackedScene.svg"
   xml:space="preserve"
   inkscape:version="1.3.2 (091e20e, 2023-11-25, custom)"
   xmlns:inkscape="http://www.inkscape.org/namespaces/inkscape"
   xmlns:sodipodi="http://sodipodi.sourceforge.net/DTD/sodipodi-0.dtd"
   xmlns="http://www.w3.org/2000/svg"
   xmlns:svg="http://www.w3.org/2000/svg"><defs
     id="defs1" /><sodipodi:namedview
     id="namedview1"
     pagecolor="#505050"
     bordercolor="#eeeeee"
     borderopacity="1"
     inkscape:showpageshadow="0"
     inkscape:pageopacity="0"
     inkscape:pagecheckerboard="0"
     inkscape:deskcolor="#505050"
     inkscape:zoom="35.84375"
     inkscape:cx="0.34873583"
     inkscape:cy="9.8343505"
     inkscape:window-width="2560"
     inkscape:window-height="1361"
     inkscape:window-x="-9"
     inkscape:window-y="-9"
     inkscape:window-maximized="1"
     inkscape:current-layer="svg1" /><g
     id="g1"
     transform="matrix(0.12700638,0,0,0.12561144,1.7692156,1.7246918)"><path
       fill="#ebedee"
       d="m 4,0 h 92 a 4,4 0 0 1 4,4 v 92 a 4,4 0 0 1 -4,4 H 4 A 4,4 0 0 1 0,96 V 4 A 4,4 0 0 1 4,0 Z"
       id="path1-0" /><path
       fill="#ffffff"
       d="M 10,20 H 90 V 90 H 10 Z"
       id="path2" /><path
       fill="#e74c3c"
       d="m 13,7 a 3,3 0 1 1 0,6 3,3 0 0 1 0,-6 z"
       id="path3" /><path
       fill="#f39c12"
       d="m 23,7 a 3,3 0 1 1 0,6 3,3 0 0 1 0,-6 z"
       id="path4" /><path
       fill="#17a085"
       d="m 33,7 a 3,3 0 1 1 0,6 3,3 0 0 1 0,-6 z"
       id="path5" /><path
       fill="#ffffff"
       d="m 45,7 h 45 v 6 H 45 Z"
       id="path6" /><path
       fill="#bdc3c7"
       d="m 20,45 v 5 h 25 v -5 z m 0,15 H 45 V 55 H 20 Z m 0,10 H 45 V 65 H 20 Z m 0,10 H 45 V 75 H 20 Z"
       id="path7" /><path
       fill="#1abc9c"
       d="M 20,30 H 80 V 40 H 20 Z"
       id="path8" /><path
       fill="#bdc3c7"
       d="M 50,45 V 60 H 80 V 45 Z m 0,35 H 80 V 65 H 50 Z"
       id="path9" /></g></svg>
